<svg width="200" height="200" viewBox="0 0 200 200" fill="none" xmlns="http://www.w3.org/2000/svg">
<path fill-rule="evenodd" clip-rule="evenodd" d="M44.5274 100.048L50.4195 82.9487C50.4195 80.9756 50.1093 79.0027 49.4891 77.4682C48.2487 74.8376 46.078 72.8647 42.9768 71.7686C34.604 68.9188 23.7501 74.6184 18.1681 84.4832C12.5862 94.348 15.067 104.87 23.1299 107.72C29.9523 110.132 38.6353 106.843 44.5274 100.048ZM56.9318 64.7536H65.6148L48.5589 114.735H39.5657L41.1163 110.351C32.123 116.05 22.1996 117.804 14.7569 114.078C3.90311 108.597 2.97279 93.4711 12.8963 80.0988C22.8198 66.7266 39.8757 60.3693 50.7297 65.8497C52.5902 66.7266 54.4508 68.0419 55.6914 69.5764L56.9318 64.7536Z" fill="#0062AD"/>
<path fill-rule="evenodd" clip-rule="evenodd" d="M172.912 100.048L178.804 82.9487C178.804 80.9756 178.494 79.0027 177.874 77.4682C176.634 74.8376 174.463 72.8647 171.362 71.7686C162.989 68.9188 152.135 74.6184 146.553 84.4832C140.971 94.348 143.452 104.87 151.515 107.72C158.337 110.132 167.02 106.843 172.912 100.048ZM185.317 64.7536H194L176.944 114.735H167.951L169.501 110.351C160.508 116.05 150.585 117.804 143.142 114.078C132.288 108.597 131.358 93.4711 141.281 80.0988C151.205 66.7266 168.261 60.3693 179.114 65.8497C180.975 66.7266 182.836 68.0419 184.076 69.5764L185.317 64.7536Z" fill="#0062AD"/>
<path fill-rule="evenodd" clip-rule="evenodd" d="M79.88 100.048L85.1519 82.9487C86.3922 80.9758 87.9428 79.0029 89.8034 77.4683C92.9045 74.8377 96.3156 72.8648 100.037 71.7687C110.271 68.9189 117.403 74.6185 116.473 84.4833C115.232 94.3481 105.929 104.871 95.6955 107.72C87.6326 110.132 81.4305 106.624 79.88 100.048ZM91.9741 63H83.2911L58.1724 136.657H67.1654L76.7788 110.132C81.7405 115.831 91.0439 117.585 100.657 113.858C115.232 108.378 126.396 93.252 125.466 79.8797C124.536 66.5075 111.821 60.1502 97.246 65.6306C94.7653 66.5075 92.2843 67.8228 89.8034 69.3573L91.9741 63Z" fill="#0062AD"/>
<path d="M172.738 135.991V129.73H174.013V130.625C174.438 130.178 174.65 129.88 174.863 129.73C175.075 129.581 175.5 129.581 175.925 129.581C176.35 129.581 176.987 129.73 177.412 129.88L176.987 130.923C176.562 130.774 176.35 130.625 175.925 130.625C175.5 130.625 175.288 130.625 175.075 130.774C174.863 130.923 174.65 131.072 174.438 131.37C174.225 131.668 174.225 132.115 174.225 132.563V135.842H172.738V135.991ZM169.339 132.861C168.702 133.01 168.065 133.159 166.79 133.308C166.153 133.308 165.728 133.457 165.516 133.457C165.303 133.606 165.091 133.606 164.878 133.755C164.666 133.904 164.666 134.053 164.666 134.202C164.666 134.5 164.878 134.65 165.091 134.948C165.303 135.097 165.94 135.246 166.365 135.246C167.003 135.246 167.427 135.097 167.852 134.948C168.277 134.799 168.702 134.5 168.915 134.202C169.127 133.904 169.127 133.606 169.127 133.159V132.861H169.339ZM169.552 135.246C168.915 135.544 168.49 135.842 167.852 135.991C167.427 136.14 166.79 136.14 166.153 136.14C165.091 136.14 164.453 135.991 163.816 135.693C163.391 135.395 162.966 134.948 162.966 134.351C162.966 134.053 162.966 133.755 163.179 133.457C163.391 133.159 163.604 133.01 164.029 132.861C164.453 132.712 164.666 132.563 165.091 132.563C165.303 132.563 165.728 132.414 166.365 132.414C167.64 132.264 168.49 132.264 169.127 132.115C169.127 131.966 169.127 131.817 169.127 131.817C169.127 131.37 168.915 131.072 168.702 130.923C168.277 130.625 167.852 130.625 167.003 130.625C166.365 130.625 165.728 130.774 165.516 130.923C165.091 131.072 164.878 131.37 164.878 131.817L163.391 131.668C163.604 131.221 163.816 130.923 164.029 130.625C164.241 130.327 164.878 130.178 165.303 130.029C165.94 129.88 166.578 129.88 167.215 129.88C168.065 129.88 168.49 129.88 169.127 130.029C169.552 130.178 169.977 130.327 170.189 130.476C170.402 130.625 170.614 130.923 170.614 131.221C170.614 131.37 170.614 131.668 170.614 132.264V133.606C170.614 134.65 170.614 135.246 170.614 135.395C170.614 135.693 170.826 135.842 171.039 136.14H169.552C169.764 135.842 169.552 135.544 169.552 135.246ZM158.718 135.991L155.319 129.73H156.806L158.718 133.457C158.93 133.904 159.143 134.202 159.355 134.65C159.567 134.351 159.567 133.904 159.992 133.457L161.904 129.73H163.391L159.992 135.991H158.718ZM142.148 135.991V135.097L147.884 130.625C147.246 130.625 146.609 130.625 146.184 130.625H142.573V129.73H149.796V130.476L144.91 134.351L144.06 135.097C144.697 135.097 145.334 135.097 145.972 135.097H150.008V135.991H142.148ZM139.599 135.991V129.73H141.086V135.991H139.599ZM139.599 128.687V127.494H141.086V128.687H139.599ZM126.003 135.991V129.73H127.278V130.625C127.49 130.327 127.915 130.029 128.34 129.88C128.765 129.73 129.402 129.581 129.827 129.581C130.464 129.581 131.101 129.73 131.526 129.88C131.951 130.029 132.164 130.327 132.376 130.625C133.013 129.88 134.075 129.581 135.138 129.581C135.987 129.581 136.625 129.73 137.262 130.029C137.687 130.327 137.899 130.923 137.899 131.668V135.991H136.412V132.115C136.412 131.668 136.412 131.37 136.2 131.221C136.2 131.072 135.987 130.923 135.775 130.774C135.563 130.625 135.138 130.625 134.925 130.625C134.288 130.625 133.863 130.774 133.438 131.072C133.013 131.37 132.801 131.817 132.801 132.414V135.991H131.314V131.966C131.314 131.519 131.101 131.221 130.889 130.923C130.677 130.625 130.252 130.625 129.614 130.625C129.19 130.625 128.765 130.774 128.552 130.923C128.127 131.072 127.915 131.37 127.702 131.668C127.49 131.966 127.49 132.414 127.49 133.01V136.289H126.003V135.991ZM123.029 135.991V129.73H124.516V135.991H123.029ZM123.029 128.687V127.494H124.516V128.687H123.029ZM117.506 135.991V129.73H118.78V130.625C119.205 130.178 119.418 129.88 119.63 129.73C119.843 129.581 120.267 129.581 120.692 129.581C121.117 129.581 121.754 129.73 122.179 129.88L121.754 130.923C121.329 130.774 121.117 130.625 120.692 130.625C120.267 130.625 120.055 130.625 119.843 130.774C119.63 130.923 119.418 131.072 119.205 131.37C118.993 131.668 118.993 132.115 118.993 132.563V135.842H117.506V135.991ZM114.532 133.457H109.646C109.646 134.053 109.858 134.351 110.283 134.65C110.708 135.097 111.345 135.246 112.195 135.246C112.832 135.246 113.47 135.097 113.894 134.799C114.319 134.5 114.532 134.053 114.532 133.457ZM116.231 132.861C116.231 133.755 115.806 134.65 115.169 135.246C114.532 135.842 113.47 136.14 111.982 136.14C110.708 136.14 109.646 135.842 109.008 135.246C108.371 134.65 107.946 133.904 107.946 133.01C107.946 133.01 107.946 132.861 107.946 132.712H114.532C114.532 132.115 114.319 131.668 113.894 131.221C113.47 130.774 112.832 130.625 111.982 130.625C110.92 130.625 110.071 131.072 109.646 131.966L108.159 131.817C108.583 130.476 110.071 129.88 111.982 129.88C113.257 129.88 114.319 130.178 115.169 130.774C115.806 131.072 116.231 131.966 116.231 132.861ZM100.936 132.861C100.936 133.606 101.149 134.202 101.361 134.5C101.786 135.097 102.423 135.246 103.273 135.246C103.91 135.246 104.547 135.097 104.972 134.65C105.397 134.202 105.609 133.606 105.609 132.861C105.609 132.115 105.397 131.519 104.972 131.072C104.547 130.625 103.91 130.476 103.273 130.476C102.635 130.476 101.998 130.625 101.573 131.072C101.149 131.519 100.936 132.115 100.936 132.861ZM100.936 135.991H99.449V127.494H100.936V130.476C101.573 129.88 102.423 129.581 103.273 129.581C103.91 129.581 104.335 129.73 104.76 129.88C105.185 130.029 105.609 130.178 106.034 130.476C106.247 130.774 106.672 131.072 106.672 131.519C106.884 131.966 106.884 132.264 106.884 132.712C106.884 133.755 106.459 134.65 105.822 135.246C104.972 135.842 104.123 136.14 103.06 136.14C101.998 136.14 101.149 135.842 100.511 135.246V135.991H100.936ZM96.6874 133.457H91.8013C91.8013 134.053 92.0138 134.351 92.4388 134.65C92.8635 135.097 93.5007 135.246 94.3506 135.246C94.9879 135.246 95.6251 135.097 96.0501 134.799C96.2624 134.5 96.475 134.053 96.6874 133.457ZM98.1743 132.861C98.1743 133.755 97.7495 134.65 97.1123 135.246C96.475 135.842 95.4128 136.14 93.9257 136.14C92.6511 136.14 91.5889 135.842 90.9516 135.246C90.3144 134.65 89.8894 133.904 89.8894 133.01C89.8894 133.01 89.8894 132.861 89.8894 132.712H96.475C96.475 132.115 96.2624 131.668 95.8375 131.221C95.4128 130.774 94.7755 130.625 93.9257 130.625C92.8635 130.625 92.0138 131.072 91.5889 131.966L90.102 131.817C90.5267 130.476 92.0138 129.88 93.9257 129.88C95.2002 129.88 96.2624 130.178 97.1123 130.774C97.9619 131.072 98.1743 131.966 98.1743 132.861ZM82.0295 135.991L85.2159 132.712L82.2419 129.73H84.1537L85.4283 131.221C85.6409 131.519 85.8532 131.668 86.0658 131.966C86.2781 131.668 86.4905 131.519 86.7031 131.221L88.19 129.73H89.8894L86.9154 132.712L90.102 135.991H88.19L86.7031 134.053L86.2781 133.606L83.9414 135.991H82.0295Z" fill="#0062AD"/>
</svg>
