<svg width="200" height="200" viewBox="0 0 200 200" fill="none" xmlns="http://www.w3.org/2000/svg">
<rect width="200" height="200" fill="white"/>
<path d="M33.55 95.8125H28V123H33.55V111.787H34.6375L36.775 123H42.7375L39.5125 108.337L42.775 95.8125H37.15L34.375 107.475H33.55V95.8125Z" fill="#8163E4"/>
<path d="M53.1848 119.625L53.6723 123H59.1473L54.2348 95.8125H48.4223L43.5098 123H48.9848L49.4723 119.625H53.1848ZM51.3473 105.675L52.5848 115.313H50.0723L51.3473 105.675Z" fill="#8163E4"/>
<path d="M68.7294 100.575C69.0669 100.575 69.2544 100.762 69.2544 101.138V109.388C69.2544 109.763 69.0669 109.95 68.7294 109.95H66.0669V100.575H68.7294ZM74.6169 99.3375C74.6169 97.2 73.4919 95.8125 70.9419 95.8125H60.6294V123H66.0669V114.338H66.7794L69.4044 123H75.0294L72.1794 114.338C73.7919 114.338 74.6169 113.138 74.6169 111.938V99.3375Z" fill="#8163E4"/>
<path d="M76.9258 118.8C76.9258 121.8 78.0133 123 81.1633 123H90.6508V107.325H85.3633V118.05H82.8883C82.5508 118.05 82.4008 117.862 82.4008 117.525V101.4C82.4008 101.062 82.5508 100.875 82.8883 100.875H88.8508L87.9133 95.8125H80.1508C78.0133 95.8125 76.9258 97.125 76.9258 99.1125V118.8Z" fill="#8163E4"/>
<path d="M100.883 100.575C101.22 100.575 101.37 100.762 101.37 101.1V117.675C101.37 118.087 101.295 118.238 100.845 118.238H98.7827C98.3327 118.238 98.2577 118.087 98.2577 117.675V101.1C98.2577 100.762 98.4077 100.575 98.7452 100.575H100.883ZM106.883 99.3375C106.883 97.2 105.758 95.8125 103.208 95.8125H96.4577C93.9077 95.8125 92.7827 97.2 92.7827 99.3375V119.137C92.7827 121.2 93.6827 123 96.6827 123H102.983C105.983 123 106.883 121.2 106.883 119.137V99.3375Z" fill="#8163E4"/>
<path d="M109.25 123H119.375L120.313 117.938H114.838V95.8125H109.25V123Z" fill="#FF6D67"/>
<path d="M131.819 123C134.969 123 136.057 121.8 136.057 118.8V95.8125H130.507V117.637C130.507 118.05 130.432 118.238 129.982 118.238H128.069C127.619 118.238 127.544 118.05 127.544 117.637V95.8125H121.994V118.8C121.994 121.8 123.082 123 126.232 123H131.819Z" fill="#FF6D67"/>
<path d="M152.578 95.8125H147.216L145.116 105.375L143.091 95.8125H137.691L141.403 108.825L137.541 123H143.053L145.116 113.438L147.216 123H152.728L148.866 108.825L152.578 95.8125Z" fill="#FF6D67"/>
<path d="M146.875 79.1696L147.574 78.6251L153.125 82.4827L157.5 78L158.199 78.8701L154.645 84.4109C154.645 84.4291 154.645 84.4745 154.645 84.5471C154.645 84.6015 154.657 84.6378 154.681 84.656C155 84.9827 155.404 85.677 155.993 86.276C156.605 86.8569 157.23 87.465 157.868 88.1003C158.505 88.7356 159.081 89.3528 159.596 89.9518C160.135 90.5508 160.478 91.0137 160.625 91.3404L159.596 91.177L153.75 86.8577C153.456 87.0029 153.321 86.9114 152.978 87.3652C152.659 87.8008 152.328 88.2909 151.985 88.8354C151.667 89.3619 151.373 89.8701 151.103 90.3602C150.833 90.8503 150.613 91.2224 150.441 91.4765L149.375 91.177L151.25 84.9827L146.875 79.1696Z" fill="#FF6D67"/>
<path d="M160.65 99.5504L160.675 98.983L164.884 97.9632L164.517 93.9523L165.235 93.988L166.463 98.056C166.472 98.0637 166.494 98.0831 166.53 98.114C166.556 98.1372 166.579 98.1468 166.598 98.1428C166.892 98.1292 167.401 98.2311 167.94 98.2042C168.48 98.1577 169.039 98.117 169.617 98.082C170.194 98.047 170.737 98.0337 171.245 98.0421C171.764 98.0386 172.134 98.0713 172.355 98.14L171.845 98.5644L167.287 99.5285C167.236 99.7316 167.134 99.7572 167.213 100.115C167.294 100.454 167.395 100.822 167.519 101.219C167.643 101.596 167.769 101.954 167.896 102.292C168.024 102.631 168.114 102.895 168.167 103.086L167.574 103.47L165.325 99.929L160.65 99.5504Z" fill="#FF6D67"/>
<path d="M153.698 111.348L153.723 110.781L157.932 109.761L157.565 105.75L158.283 105.786L159.511 109.854C159.52 109.862 159.542 109.881 159.578 109.912C159.604 109.935 159.627 109.945 159.646 109.941C159.939 109.927 160.448 110.029 160.988 110.002C161.528 109.956 162.087 109.915 162.664 109.88C163.242 109.845 163.785 109.832 164.293 109.84C164.812 109.836 165.182 109.869 165.403 109.938L164.893 110.362L160.335 111.326C160.284 111.529 160.182 111.555 160.261 111.913C160.341 112.252 160.443 112.62 160.566 113.017C160.691 113.394 160.817 113.752 160.944 114.09C161.072 114.428 161.162 114.693 161.214 114.884L160.622 115.268L158.372 111.727L153.698 111.348Z" fill="#FF6D67"/>
</svg>
