<svg width="200" height="200" viewBox="0 0 200 200" fill="none" xmlns="http://www.w3.org/2000/svg">
<g clip-path="url(#clip0)">
<path d="M130.379 120.566C130.379 120.943 130.379 121.195 130.379 121.572C130.379 122.328 130.098 122.831 129.397 123.209C127.994 124.089 125.609 124.089 124.206 123.209C123.644 122.831 123.223 122.328 123.223 121.698C123.223 120.943 123.223 120.188 123.223 119.433C123.223 118.804 123.504 118.3 124.065 117.923C124.206 117.797 124.346 117.671 124.626 117.671C126.029 117.042 127.573 117.042 128.976 117.671C129.818 118.049 130.379 118.678 130.379 119.685C130.379 119.936 130.379 120.314 130.379 120.566Z" fill="#019FF8"/>
<path d="M25.7143 114.147L32.1682 119.182C32.1682 119.182 29.3622 124.971 25.574 125.726C25.574 125.726 20.5232 124.845 18.9799 117.923C19.1202 117.923 21.6456 120.566 25.7143 114.147Z" fill="url(#paint0_linear)"/>
<path d="M10 76.6429L18.839 74V116.035C18.839 116.035 18.839 117.042 19.2599 118.552C19.8211 120.818 21.5047 124.593 25.7138 125.726C21.645 125.978 10 128.369 10 112.637C10 94.8918 10 76.6429 10 76.6429Z" fill="#019FF8"/>
<path d="M188.605 118.3C184.535 118.3 178.923 118.3 175.275 118.3C174.855 118.3 174.294 118.426 174.154 118.048C174.154 117.922 174.154 117.797 174.294 117.671C174.434 117.545 183.694 104.959 188.183 98.7926C188.323 98.5409 188.605 98.2892 188.745 97.9116C189.025 97.4082 189.166 96.9047 189.166 96.4013C189.306 94.6394 187.621 92.6257 185.097 92.6257C178.923 92.7516 172.891 92.6257 166.717 92.6257C166.437 92.6257 166.297 92.6257 165.735 92.6257L166.717 98.2892C167.138 98.2892 167.7 98.2892 168.12 98.2892C171.768 98.2892 175.275 98.2892 178.923 98.2892C179.205 98.2892 179.625 98.2892 179.906 98.2892C180.046 98.2892 180.186 98.5409 180.046 98.6667C179.906 98.9184 179.625 99.296 179.485 99.5477C175.697 104.708 171.908 109.742 168.12 114.902C167.138 116.16 166.155 117.419 165.314 118.803C163.771 121.069 165.875 123.838 167.98 123.963C168.541 123.963 169.103 124.089 169.663 124.089C175.275 124.089 183.272 124.089 189.306 124.089L188.605 118.3Z" fill="#019FF8"/>
<path d="M160.123 101.561C159.983 99.6735 159.422 97.9116 158.018 96.2755C157.317 95.5204 156.475 94.7653 155.633 94.136C154.09 93.1291 152.547 92.6257 150.582 92.6257C146.654 92.6257 140.2 92.6257 135.43 92.6257L136.552 98.2892C140.2 98.2892 145.391 98.2892 148.197 98.2892C148.478 98.2892 148.759 98.2892 149.039 98.2892C150.863 98.415 152.266 99.4218 152.687 101.058C152.968 102.191 152.968 103.449 152.968 104.582C152.968 104.834 152.827 104.959 152.406 104.959C151.845 104.959 151.284 104.834 150.723 104.834C148.338 104.708 146.093 104.708 143.708 105.085C142.305 105.211 140.902 105.589 139.499 105.966C137.815 106.47 136.412 107.476 135.43 108.735C133.606 111 133.045 113.517 133.466 116.16C134.027 119.684 136.973 123.838 143.147 123.838C147.356 123.838 151.424 123.838 155.633 123.838C156.054 123.838 156.616 123.838 157.036 123.712C159.001 123.334 159.842 122.327 159.842 120.565C159.842 116.915 159.842 113.392 160.123 109.742C160.404 106.973 160.263 104.204 160.123 101.561ZM152.406 118.3C151.003 118.3 149.6 118.3 148.197 118.3C146.794 118.3 145.532 118.3 144.129 118.3C143.287 118.3 142.585 118.174 141.884 117.797C141.042 117.293 140.34 116.664 140.2 115.657C140.06 114.65 140.2 113.769 140.481 112.888C140.621 112.133 141.323 111.756 141.884 111.378C142.585 111 143.427 110.874 144.129 110.749C145.953 110.497 147.776 110.371 149.46 110.623C150.442 110.749 151.424 110.623 152.406 110.874C152.968 111 152.968 111 152.968 111.504C152.968 113.517 152.968 115.531 152.968 117.545C153.389 118.3 153.248 118.3 152.406 118.3Z" fill="#019FF8"/>
<path d="M113.122 118.301C111.859 118.301 111.017 117.797 110.176 117.042C109.474 116.287 109.193 115.406 109.053 114.525C108.913 113.518 108.772 112.637 108.913 111.63C108.913 109.743 108.913 107.981 108.913 106.093C108.913 104.079 108.913 102.066 108.913 100.052C108.913 98.164 108.632 98.4157 110.737 98.4157C112.28 98.4157 115.367 98.4157 117.612 98.4157L116.629 92.6265C114.525 92.6265 111.438 92.6265 110.035 92.6265C109.755 92.6265 109.474 92.6265 109.193 92.6265C109.053 92.6265 108.913 92.5006 108.913 92.3748C108.913 92.1231 108.913 91.8714 108.913 91.7455C108.913 90.6129 108.913 87.2148 108.913 84.6977L102.038 85.9562C102.038 94.2626 102.038 105.212 102.038 112.637C102.038 113.015 102.038 113.518 102.038 113.896C102.038 115.406 102.459 116.916 103.16 118.427C104.704 121.573 107.37 123.586 111.158 123.964C111.719 123.964 112.42 124.09 112.982 124.09C114.104 124.09 117.752 124.09 120.558 124.09L119.856 118.552C117.191 118.301 114.244 118.301 113.122 118.301Z" fill="#019FF8"/>
<path d="M69.348 123.838H76.3631C76.3631 116.287 76.3631 106.218 76.3631 99.6739C76.3631 99.2965 76.3631 99.0447 76.3631 98.6671C76.3631 98.5413 76.5034 98.4154 76.6437 98.4154C76.9243 98.4154 77.2048 98.4154 77.4854 98.4154C79.59 98.4154 81.6945 98.4154 83.7991 98.4154C84.22 98.4154 84.7811 98.4154 85.202 98.4154C87.1663 98.5413 88.5693 99.4222 89.1305 101.058C89.2708 101.31 89.2708 101.562 89.4111 101.814C89.6917 102.569 89.6917 103.324 89.6917 104.079C89.6917 109.239 89.6917 117.797 89.6917 123.964H96.7068C96.7068 117.671 96.7068 109.365 96.7068 104.205C96.7068 102.82 96.5665 101.562 96.2859 100.177C95.444 96.5277 91.9365 92.752 86.0439 92.752C81.9751 92.752 77.9063 92.752 73.8376 92.752C73.1362 92.752 72.4346 92.8778 71.7331 93.0038C70.6106 93.2555 69.7689 94.0106 69.4883 95.0174C69.348 95.5208 69.348 96.0243 69.348 96.5277C69.348 100.807 69.348 105.212 69.348 109.491C69.348 113.266 69.348 117.042 69.348 120.817C69.348 121.069 69.348 122.453 69.348 123.838Z" fill="#019FF8"/>
<path d="M62.7528 118.301C58.9648 118.301 53.7735 118.301 50.5466 118.175C49.7048 118.175 49.0032 118.175 48.1615 118.175C46.3375 118.175 44.7943 117.042 44.654 115.028C44.654 114.021 44.654 112.889 44.654 111.882C44.654 111.756 44.654 111.63 44.654 111.504C44.654 111.127 44.7943 111.001 45.2151 111.001C45.4957 111.001 45.9166 111.001 46.1972 111.001C50.1257 111.001 54.1945 111.001 58.1229 111.001C59.1051 111.001 60.0871 111.001 61.0692 110.875C62.6126 110.749 63.7349 109.868 64.1558 108.61C64.2961 108.106 64.4365 107.603 64.4365 107.225C64.4365 106.219 64.2961 105.212 64.2961 104.205C64.1558 102.695 63.8752 101.184 63.1737 99.6741C62.0514 96.7794 59.8065 94.7657 56.5795 93.5072C51.9497 91.7454 46.0569 92.5005 42.1285 95.3951C40.024 96.9053 38.6209 98.7931 37.9194 101.184C37.7792 101.939 37.6389 102.695 37.4986 103.576C37.218 105.086 37.218 106.596 37.0777 108.106C36.9374 110.498 36.7971 112.889 37.218 115.154C37.4986 117.294 38.3403 119.181 39.7434 120.943C40.8658 122.202 42.1285 123.209 43.9525 123.712C44.7943 123.964 45.636 123.964 46.4778 123.964C49.0032 123.964 51.5288 123.964 54.0541 123.964C56.1586 123.964 59.9468 123.964 62.7528 123.964V118.301ZM44.2331 105.086C44.5137 102.82 45.3554 100.807 47.46 99.4224C49.1435 98.2896 51.1078 98.0379 53.2123 98.5413C54.896 98.919 56.1586 99.9258 57.0005 101.31C57.702 102.443 57.8423 103.827 57.9826 105.086C57.9826 105.337 57.8423 105.463 57.5617 105.589C57.2811 105.589 57.0005 105.589 56.7198 105.589C54.896 105.589 52.9317 105.589 51.1078 105.589C49.2838 105.589 47.46 105.589 45.636 105.589C45.3554 105.589 45.0748 105.589 44.7943 105.589C44.2331 105.337 44.2331 105.212 44.2331 105.086Z" fill="#019FF8"/>
</g>
<defs>
<linearGradient id="paint0_linear" x1="21.3657" y1="122.927" x2="29.0527" y2="115.736" gradientUnits="userSpaceOnUse">
<stop stop-color="#004E79"/>
<stop offset="0.0289346" stop-color="#005788"/>
<stop offset="0.2501" stop-color="#0472B0"/>
<stop offset="0.4548" stop-color="#0291E2"/>
<stop offset="0.6353" stop-color="#039AEF"/>
<stop offset="0.7723" stop-color="#019FF8"/>
</linearGradient>
<clipPath id="clip0">
<rect width="180" height="52" fill="white" transform="translate(10 74)"/>
</clipPath>
</defs>
</svg>
