<svg width="300" height="280" viewBox="0 0 300 280" fill="none" xmlns="http://www.w3.org/2000/svg">
<g clip-path="url(#clip0)">
<path d="M91.1713 135.873C91.0497 135.873 91.0497 135.873 90.9282 135.746C90.5635 135.619 90.3204 135.492 89.9558 135.365C89.8343 135.365 89.8343 135.238 89.7127 135.238C85.9448 133.714 82.9061 131.429 81.2044 130.032C74.7624 125.333 68.442 119.873 57.6243 119.873C57.6243 119.873 48.3867 120.508 40 124.064C40 124.064 71.4807 132.317 80.8398 159.873C80.8398 159.873 84.3646 146.921 97.7348 136.889C95.4254 137.016 93.2376 136.635 91.1713 135.873Z" fill="#F05A2A"/>
<path d="M95.79 123.302C87.2818 123.302 81.9337 129.397 81.2044 130.159C84 132.445 90.6851 137.143 97.7348 136.889C101.381 134.222 105.757 131.556 110.983 129.524C111.105 129.651 104.906 123.302 95.79 123.302Z" fill="#FBB041"/>
<path d="M112.077 135.873H115.116L122.773 153.016L130.188 135.873H133.348L122.773 160L112.077 135.873Z" fill="black"/>
<path d="M154.862 151.619L157.293 153.016C156.442 154.667 155.591 155.936 154.497 156.952C153.403 157.968 152.309 158.73 150.972 159.238C149.635 159.746 148.177 160 146.475 160C142.829 160 139.912 158.73 137.845 156.19C135.779 153.651 134.685 150.857 134.685 147.682C134.685 144.635 135.536 142.095 137.359 139.682C139.547 136.762 142.586 135.238 146.232 135.238C150.122 135.238 153.16 136.762 155.47 139.809C157.05 141.968 157.901 144.635 157.901 147.809H137.724C137.724 150.603 138.575 152.762 140.276 154.54C141.856 156.317 143.923 157.206 146.232 157.206C147.326 157.206 148.541 156.952 149.635 156.571C150.729 156.19 151.702 155.555 152.431 154.921C153.16 154.286 154.011 153.143 154.862 151.619ZM154.862 145.27C154.497 143.619 153.889 142.349 153.16 141.46C152.431 140.444 151.459 139.682 150.243 139.175C149.028 138.54 147.691 138.286 146.354 138.286C144.166 138.286 142.221 139.048 140.641 140.571C139.425 141.714 138.575 143.238 137.967 145.397H154.862V145.27Z" fill="black"/>
<path d="M178.32 138.286L175.768 140.317C173.702 138.794 171.635 137.905 169.569 137.905C168.232 137.905 167.138 138.286 166.287 138.921C165.315 139.556 164.95 140.317 164.95 141.206C164.95 141.968 165.315 142.73 166.044 143.365C166.773 144.127 168.354 144.889 170.784 145.905C173.702 147.048 175.768 148.19 176.74 149.333C177.834 150.476 178.32 151.619 178.32 153.016C178.32 154.921 177.47 156.571 175.646 157.968C173.823 159.365 171.635 160 168.961 160C167.138 160 165.436 159.746 163.856 159.111C162.276 158.476 160.939 157.714 159.845 156.698L162.276 154.54C164.343 156.317 166.409 157.206 168.718 157.206C170.298 157.206 171.635 156.825 172.729 156.063C173.823 155.302 174.431 154.413 174.431 153.27C174.431 152.381 174.066 151.619 173.337 150.984C172.608 150.349 170.906 149.46 168.354 148.444C165.558 147.302 163.735 146.286 162.641 145.143C161.668 144.127 161.182 142.857 161.182 141.46C161.182 139.683 162.033 138.159 163.613 137.016C165.193 135.873 167.26 135.238 169.691 135.238C172.608 135.111 175.403 136.254 178.32 138.286Z" fill="black"/>
<path d="M184.276 135.873V127.111H187.193V135.873H191.812V138.54H187.193V159.365H184.276V138.54" fill="black"/>
<path d="M195.702 135.873H198.619V159.365H195.702V135.873Z" fill="black"/>
<path d="M195.702 130.032H198.619V132.952H195.702V130.032Z" fill="black"/>
<path d="M243.47 135.873H260L247.238 156.698H259.514V159.365H242.133L254.895 138.539H243.348V135.873H243.47Z" fill="black"/>
<path d="M205.304 154.921H210.287V160H205.304V154.921Z" fill="black"/>
<path d="M238.972 146.921C238.608 140.444 233.503 135.238 227.182 135.238H227.061H226.939C223.779 135.238 220.983 136.381 218.674 138.794C216.365 141.206 215.271 144.127 215.271 147.429C215.271 147.555 215.271 147.682 215.271 147.809C215.392 151.111 216.486 153.905 218.674 156.19C220.983 158.603 223.657 159.873 226.818 159.873H226.939H227.061C230.586 159.873 233.624 158.349 235.812 155.809V159.365H238.851L238.972 146.921ZM227.182 157.079C222.199 157.079 218.188 152.889 218.188 147.682C218.188 142.476 222.199 138.286 227.182 138.286C232.166 138.286 236.177 142.476 236.177 147.682C236.177 152.889 232.166 157.079 227.182 157.079Z" fill="black"/>
</g>
<defs>
<clipPath id="clip0">
<rect width="220" height="40" fill="white" transform="translate(40 120)"/>
</clipPath>
</defs>
</svg>
